Coordinates
version=1
nRows=24
nColumns=24
inDegrees=yes

Units are S.I. units (second, meters, Newtons, ...)
Angles are in degrees.

endheader
time	pelvis_tilt	pelvis_list	pelvis_rotation	pelvis_tx	pelvis_ty	pelvis_tz	hip_flexion_r	hip_adduction_r	hip_rotation_r	knee_angle_r	ankle_angle_r	subtalar_angle_r	mtp_angle_r	hip_flexion_l	hip_adduction_l	hip_rotation_l	knee_angle_l	ankle_angle_l	subtalar_angle_l	mtp_angle_l	lumbar_extension	lumbar_bending	lumbar_rotation
      1.21500000	      8.06604065	     -9.05241075	    -16.24565799	     -0.62481841	      0.97703184	      0.01476466	    -24.07020849	      1.03103550	     -8.32258372	    -15.55200299	     10.99948313	     19.84237577	      5.76629636	     16.52741889	    -11.77796573	    -34.36055417	     -8.74102285	     -4.88674535	     -3.72960439	     11.15525921	    -21.77308609	     15.99267475	     54.05525108
      1.22000000	      8.04911832	     -9.07599399	    -16.41085344	     -0.61779143	      0.97617258	      0.01469599	    -24.31163189	      0.81220667	     -8.25323004	    -15.84981172	     10.88743072	     19.84865577	      5.97107106	     16.53557809	    -11.81370703	    -33.77054354	     -9.34716153	     -5.23847963	     -4.55067970	     11.11503614	    -21.76081261	     15.87289828	     54.16561560
      1.22500000	      8.03270858	     -9.07070764	    -16.53186390	     -0.61070383	      0.97534560	      0.01456076	    -24.54342775	      0.58211963	     -8.23333272	    -16.11650974	     10.40194160	     19.79556413	      8.49929975	     16.56286428	    -11.81401023	    -33.14791691	     -9.98275946	     -5.72956666	     -5.44722306	     12.01158219	    -21.72261177	     15.73290380	     54.21743258
      1.23000000	      8.01387764	     -9.06102117	    -16.66235416	     -0.60363864	      0.97463202	      0.01441184	    -24.72903715	      0.34650441	     -8.12992897	    -16.48344228	     10.24605220	     19.68700473	      8.61653969	     16.58217479	    -11.81526913	    -32.54075026	    -10.62133871	     -6.21237022	     -6.29258493	     11.93283775	    -21.68775230	     15.58698069	     54.28746410
      1.23500000	      8.00085833	     -9.02677287	    -16.74218265	     -0.59652846	      0.97397143	      0.01415713	    -24.89651754	      0.09935093	     -8.12105401	    -16.85589576	      9.73820929	     19.57172102	     10.62446941	     16.61969906	    -11.78120976	    -31.91536015	    -11.27989150	     -6.84276995	     -7.22145996	     12.65462896	    -21.64008020	     15.43477387	     54.32562885
      1.24000000	      7.98501458	     -8.97153231	    -16.81718775	     -0.58943021	      0.97340161	      0.01387620	    -25.01714484	     -0.15910793	     -8.02862171	    -17.31337760	      9.51425923	     19.34332529	     10.85079454	     16.66709837	    -11.73106228	    -31.28540792	    -11.96453692	     -7.36998207	     -8.10087410	     12.59713945	    -21.58312091	     15.25933274	     54.33537357
      1.24500000	      7.98303081	     -8.89702510	    -16.89501331	     -0.58230247	      0.97296573	      0.01358778	    -25.12447460	     -0.44429864	     -7.91820647	    -17.75601652	      8.81591496	     19.08525635	     13.47624652	     16.69126638	    -11.66460393	    -30.71466986	    -12.63709640	     -8.03345245	     -8.98926526	     13.35075253	    -21.53381645	     15.05620108	     54.36152054
      1.25000000	      7.97917580	     -8.81251185	    -16.96007841	     -0.57519067	      0.97263026	      0.01324992	    -25.18328337	     -0.73011753	     -7.75741106	    -18.30372560	      8.45491954	     18.79465416	     13.59494496	     16.72921999	    -11.59267019	    -30.16941176	    -13.34259690	     -8.60467646	     -9.79521493	     13.24693130	    -21.48232158	     14.84970719	     54.35884870
      1.25500000	      7.98929056	     -8.69990474	    -16.97669038	     -0.56800565	      0.97236942	      0.01283397	    -25.22937614	     -1.03233926	     -7.68997174	    -18.84182480	      7.60348541	     18.40711183	     16.68758293	     16.77084176	    -11.48095334	    -29.62592676	    -14.06854760	     -9.19319185	    -10.60218624	     13.79439162	    -21.41906420	     14.62457293	     54.31172702
      1.26000000	      7.99431020	     -8.58624661	    -16.99549629	     -0.56083520	      0.97222798	      0.01241009	    -25.22351323	     -1.32920021	     -7.52474334	    -19.48847966	      7.09832392	     18.06057475	     16.80455665	     16.80872354	    -11.37434720	    -29.12848803	    -14.79728557	     -9.70197003	    -11.27463501	     13.70164317	    -21.35805370	     14.40118562	     54.27796542
      1.26500000	      8.00579289	     -8.45162136	    -16.94912883	     -0.55359314	      0.97213913	      0.01187163	    -25.19474613	     -1.63193353	     -7.49255694	    -20.13242745	      6.07200969	     17.64258755	     20.16721509	     16.86034343	    -11.22757392	    -28.60550703	    -15.54518292	    -10.18880564	    -11.91919962	     14.07873240	    -21.27921464	     14.17927549	     54.19876328
      1.27000000	      8.03439345	     -8.31003591	    -16.92715195	     -0.54634225	      0.97218392	      0.01137877	    -25.13761698	     -1.94884000	     -7.35505285	    -20.85330666	      5.18553673	     17.12940133	     22.14504537	     16.86970026	    -11.07628356	    -28.19545695	    -16.28289859	    -10.55989203	    -12.46516679	     14.08615762	    -21.22117227	     13.93176590	     54.12619759
      1.27500000	      8.06819652	     -8.17180323	    -16.88798759	     -0.53906668	      0.97233261	      0.01086009	    -25.04247248	     -2.25794141	     -7.20123175	    -21.66464109	      4.44275002	     16.73083273	     22.27572021	     16.85671692	    -10.91931433	    -27.84007191	    -16.99750174	    -10.88315319	    -12.92107735	     14.03590713	    -21.16520037	     13.69396040	     54.03630608
      1.28000000	      8.10170411	     -8.01237442	    -16.79550774	     -0.53174884	      0.97249325	      0.01023893	    -24.90956840	     -2.57811351	     -7.17109157	    -22.47730529	      3.17050284	     16.18319030	     26.06614991	     16.85155193	    -10.71840846	    -27.47686173	    -17.70413593	    -11.14884400	    -13.33713956	     14.25229352	    -21.09582033	     13.45826391	     53.93690600
      1.28500000	      8.14768345	     -7.87248390	    -16.69195972	     -0.52440305	      0.97277655	      0.00963802	    -24.75654341	     -2.87117831	     -7.08271394	    -23.35537829	      2.00515335	     15.63519342	     28.08619775	     16.80359954	    -10.52779180	    -27.18416481	    -18.38462167	    -11.28372248	    -13.64956635	     14.19566611	    -21.03801213	     13.23947037	     53.81195504
      1.29000000	      8.19403200	     -7.73172371	    -16.55884288	     -0.51705631	      0.97311368	      0.00897120	    -24.55690266	     -3.16048376	     -7.01869419	    -24.30564770	      0.78878990	     15.12598513	     29.93614888	     16.73378370	    -10.31330112	    -26.90142052	    -19.01206133	    -11.36717451	    -13.91256758	     14.17692431	    -20.98073804	     13.03487504	     53.67492705
      1.29500000	      8.24040860	     -7.59947990	    -16.39399963	     -0.50969343	      0.97351231	      0.00826286	    -24.31890007	     -3.43056525	     -6.97651069	    -25.30238934	     -0.52275850	     14.59328581	     31.75905701	     16.64291104	    -10.08985722	    -26.65044225	    -19.60293626	    -11.36823277	    -14.11421841	     14.10613390	    -20.91960651	     12.85349552	     53.51191558
      1.30000000	      8.28683483	     -7.47353393	    -16.19827471	     -0.50232943	      0.97396452	      0.00751399	    -24.03914672	     -3.68498347	     -6.94989977	    -26.35890643	     -1.89104811	     14.06724053	     33.36879861	     16.52905815	     -9.85401784	    -26.41550084	    -20.14842846	    -11.29156325	    -14.26010331	     14.00603277	    -20.85420604	     12.69086674	     53.31973904
      1.30500000	      8.35065676	     -7.36002376	    -15.98228720	     -0.49494621	      0.97451384	      0.00674432	    -23.74286422	     -3.92967609	     -6.92074508	    -27.47042640	     -3.19713432	     13.76920354	     33.37504237	     16.35845751	     -9.61163335	    -26.23082981	    -20.63237097	    -11.13401731	    -14.31883335	     14.01516936	    -20.80260713	     12.54393769	     53.08021032
      1.31000000	      8.38608732	     -7.25285078	    -15.73727046	     -0.48762404	      0.97506103	      0.00590786	    -23.36817627	     -4.14653415	     -6.91689735	    -28.60177358	     -4.82486022	     13.06320834	     36.10292307	     16.20935886	     -9.36026761	    -26.00845786	    -21.08739823	    -10.89995581	    -14.41053851	     13.63828691	    -20.73201207	     12.43361160	     52.87946008
      1.31500000	      8.44091168	     -7.16079160	    -15.44493391	     -0.48027432	      0.97569322	      0.00503315	    -22.98425616	     -4.33854038	     -6.93955790	    -29.80150101	     -6.25388926	     12.67752544	     36.10999188	     16.01205646	     -9.10161236	    -25.79273209	    -21.48971455	    -10.62856739	    -14.44239575	     13.64079748	    -20.66858435	     12.34342022	     52.58775056
      1.32000000	      8.47913782	     -7.07599216	    -15.17185550	     -0.47298694	      0.97637977	      0.00417367	    -22.52841864	     -4.52306687	     -6.89923833	    -31.04741729	     -7.72954918	     12.29294301	     36.10682658	     15.79271048	     -8.85009381	    -25.62507628	    -21.82185281	    -10.38373877	    -14.46199642	     13.61826281	    -20.59716898	     12.26631697	     52.31354797
      1.32500000	      8.51327486	     -6.99775383	    -14.87009223	     -0.46574001	      0.97709127	      0.00327190	    -22.03400591	     -4.68222736	     -6.87119505	    -32.29737623	     -9.35696465	     11.59337501	     37.62738203	     15.56951367	     -8.59109874	    -25.42191256	    -22.14560468	     -9.92227743	    -14.41236139	     12.77323133	    -20.52539465	     12.21252363	     52.03357032
      1.33000000	      8.55255391	     -6.93508775	    -14.52735308	     -0.45850191	      0.97785931	      0.00231672	    -21.51764948	     -4.81351039	     -6.87142551	    -33.58870633	    -10.82214083	     11.13854832	     37.44134350	     15.32051229	     -8.33203501	    -25.19780235	    -22.41563976	     -9.58064088	    -14.40463080	     12.77268104	    -20.45481844	     12.19175022	     51.71873624
